<svg xmlns="http://www.w3.org/2000/svg" width="750" height="157" fill="none"><path fill="#FF7E00" fill-rule="evenodd" d="M496.818 29c11.046 0 20-8.954 20-20s-8.954-20-20-20-20 8.954-20 20 8.954 20 20 20Z" clip-rule="evenodd"/><path fill="#F7C348" fill-rule="evenodd" d="M637.818 66c5.523 0 10-4.477 10-10s-4.477-10-10-10-10 4.477-10 10 4.477 10 10 10Z" clip-rule="evenodd"/><path fill="#FEFF65" fill-rule="evenodd" d="M362 81c11.046 0 20-8.954 20-20s-8.954-20-20-20-20 8.954-20 20 8.954 20 20 20Z" clip-rule="evenodd"/><path fill="#FFBDCA" fill-rule="evenodd" d="M68.818 122c5.523 0 10-4.477 10-10s-4.477-10-10-10-10 4.477-10 10 4.477 10 10 10Z" clip-rule="evenodd"/><path fill="#FFE949" fill-rule="evenodd" d="M226.818 52a6 6 0 1 0 0-12 6 6 0 0 0 0 12Z" clip-rule="evenodd"/><path fill="#49FFF4" fill-rule="evenodd" d="M390.553 34.796a6 6 0 1 0-3.107-11.593 6 6 0 0 0 3.107 11.593Z" clip-rule="evenodd"/><path fill="#FFE949" fill-rule="evenodd" d="M527.818 59a6 6 0 1 0 0-12 6 6 0 0 0 0 12Z" clip-rule="evenodd"/><path fill="#FCADFF" d="M54.718 31.958 68.86 46.101 34.92 80.04 20.776 65.9z"/><path fill="#9BFFDA" d="m199.918 78.172 7.071-7.071 12.728 12.728-7.07 7.07z"/><path fill="#37DAFF" fill-rule="evenodd" d="M154.818 40c27.614 0 50-22.386 50-50s-22.386-50-50-50-50 22.386-50 50 22.386 50 50 50Z" clip-rule="evenodd"/><path fill="#FFE949" d="m599.622-39.627 56.569-56.569L758.014 5.628l-56.568 56.568zM465.896 91.22l7.727 2.07-3.882 14.49-7.727-2.071z"/><path fill="#E0B6FF" d="m317.077 13.22 7.727 2.07-3.882 14.49-7.727-2.071z"/><path fill="#FFE949" d="m126.104 74.005 6.928 4-7.5 12.99-6.928-4z"/><path fill="#FF3C00" d="m594.343 113.368-5.657 5.657 10.607 10.606 5.657-5.656z"/><path fill="#FFA746" d="M9.172 9.54.686 18.025l14.142 14.142 8.486-8.485z"/><path fill="#49FFF4" d="m581.828 3.572-8 13.856 25.98 15 8-13.856zM687.148 137.768l5 8.66-17.32 10-5-8.66z"/></svg>